<svg xmlns="http://www.w3.org/2000/svg" xmlns:xlink="http://www.w3.org/1999/xlink" preserveAspectRatio="xMidYMid" width="130" height="40" viewBox="0 0 130 40">
  <defs>
    <style>

      .cls-2 {
        fill: #ffffff;
      }
    </style>
  </defs>
  <path d="M122.015,23.007 C122.015,23.007 122.015,20.519 122.015,20.519 C122.015,20.519 123.786,20.519 123.786,20.519 C123.786,20.519 123.786,17.129 123.786,17.129 C123.786,17.129 123.786,17.115 123.786,17.115 C123.786,17.115 123.786,8.702 123.786,8.702 C123.786,8.702 122.015,8.702 122.015,8.702 C122.015,8.702 122.015,6.415 122.015,6.415 C122.015,6.415 128.342,6.415 128.342,6.415 C128.342,6.415 128.342,17.115 128.342,17.115 C128.342,17.115 128.342,17.129 128.342,17.129 C128.342,17.129 128.342,20.519 128.342,20.519 C128.342,20.519 130.007,20.519 130.007,20.519 C130.007,20.519 130.007,23.007 130.007,23.007 C130.007,23.007 122.015,23.007 122.015,23.007 ZM123.750,0.007 C123.750,0.007 128.348,0.007 128.348,0.007 C128.348,0.007 128.348,3.010 128.348,3.010 C128.348,3.010 123.750,3.010 123.750,3.010 C123.750,3.010 123.750,0.007 123.750,0.007 ZM116.771,39.820 C116.771,39.820 114.752,39.820 114.752,39.820 C114.752,39.820 114.752,33.101 114.752,33.101 C115.827,33.058 116.461,33.046 117.201,33.046 C118.684,33.046 119.349,33.249 119.962,33.862 C120.532,34.433 120.865,35.353 120.865,36.327 C120.865,37.471 120.381,38.497 119.544,39.132 C118.889,39.619 118.093,39.820 116.771,39.820 ZM118.737,33.925 C118.318,33.661 117.900,33.576 117.019,33.576 C116.718,33.576 116.245,33.587 115.590,33.619 C115.590,33.619 115.590,39.291 115.590,39.291 C115.590,39.291 116.826,39.291 116.826,39.291 C117.942,39.291 118.695,39.047 119.156,38.561 C119.618,38.074 119.908,37.217 119.908,36.370 C119.908,35.312 119.457,34.370 118.737,33.925 ZM8.103,10.046 C8.103,10.046 10.525,10.046 10.525,10.046 C10.525,10.046 10.525,7.967 10.525,7.967 C10.525,7.967 13.305,7.967 13.305,7.967 C13.305,7.967 13.305,14.944 13.305,14.944 C13.305,14.944 10.525,14.944 10.525,14.944 C10.525,14.944 10.525,12.735 10.525,12.735 C10.525,12.735 8.103,12.735 8.103,12.735 C8.103,12.735 8.103,17.115 8.103,17.115 C8.103,17.115 8.103,17.129 8.103,17.129 C8.103,17.129 8.103,20.534 8.103,20.534 C8.103,20.534 12.291,20.534 12.291,20.534 C12.291,20.534 12.291,23.007 12.291,23.007 C12.291,23.007 0.007,23.007 0.007,23.007 C0.007,23.007 0.007,20.534 0.007,20.534 C0.007,20.534 3.279,20.534 3.279,20.534 C3.279,20.534 3.279,17.129 3.279,17.129 C3.279,17.129 3.279,17.115 3.279,17.115 C3.279,17.115 3.279,3.015 3.279,3.015 C3.279,3.015 0.710,3.015 0.710,3.015 C0.710,3.015 0.710,-0.005 0.710,-0.005 C0.710,-0.005 120.122,-0.005 120.122,-0.005 C120.122,-0.005 120.122,3.015 120.122,3.015 C120.122,3.015 8.103,3.015 8.103,3.015 C8.103,3.015 8.103,10.046 8.103,10.046 ZM12.974,33.112 C12.974,33.112 15.606,39.820 15.606,39.820 C15.606,39.820 14.693,39.820 14.693,39.820 C14.693,39.820 13.887,37.651 13.887,37.651 C13.887,37.651 10.922,37.651 10.922,37.651 C10.922,37.651 10.010,39.820 10.010,39.820 C10.010,39.820 9.150,39.820 9.150,39.820 C9.150,39.820 12.308,33.112 12.308,33.112 C12.308,33.112 12.974,33.112 12.974,33.112 ZM13.683,37.132 C13.683,37.132 12.491,33.979 12.491,33.979 C12.491,33.979 11.148,37.132 11.148,37.132 C11.148,37.132 13.683,37.132 13.683,37.132 ZM26.215,6.157 C26.215,6.157 26.888,6.157 26.888,6.157 C31.574,6.175 33.355,7.146 33.355,9.467 C33.355,9.467 33.355,15.869 33.355,15.869 C33.355,15.869 24.301,15.869 24.301,15.869 C24.301,15.869 24.301,17.115 24.301,17.115 C24.301,17.115 24.301,17.129 24.301,17.129 C24.301,17.129 24.301,18.821 24.301,18.821 C24.278,20.374 24.138,20.616 26.597,20.599 C28.720,20.579 29.002,20.505 29.002,18.821 C29.002,18.821 29.002,17.575 29.002,17.575 C29.002,17.575 33.355,17.575 33.355,17.575 C33.355,17.575 33.355,19.969 33.355,19.969 C33.355,22.922 31.847,23.258 26.811,23.367 C26.811,23.367 26.307,23.367 26.307,23.367 C21.698,23.247 19.801,22.715 19.801,19.564 C19.801,19.564 19.801,17.129 19.801,17.129 C19.801,17.129 19.801,17.115 19.801,17.115 C19.801,17.115 19.801,10.185 19.801,10.185 C19.801,7.309 21.152,6.178 26.215,6.157 ZM24.351,14.159 C24.351,14.159 28.771,14.159 28.771,14.159 C28.771,14.159 28.771,9.361 28.771,9.361 C28.771,8.740 28.329,8.396 27.535,8.392 C27.535,8.392 25.628,8.392 25.628,8.392 C24.616,8.397 24.351,8.835 24.351,9.704 C24.351,9.704 24.351,14.159 24.351,14.159 ZM27.132,33.080 C28.055,33.080 28.582,33.174 28.990,33.428 C29.506,33.746 29.807,34.338 29.807,35.026 C29.807,35.915 29.291,36.667 28.474,36.984 C28.034,37.154 27.636,37.206 26.777,37.206 C26.573,37.206 26.434,37.206 26.165,37.196 C26.165,37.196 26.165,39.820 26.165,39.820 C26.165,39.820 25.327,39.820 25.327,39.820 C25.327,39.820 25.327,33.112 25.327,33.112 C25.929,33.101 26.014,33.101 26.358,33.089 C26.723,33.080 27.003,33.080 27.132,33.080 ZM26.165,36.614 C26.466,36.635 26.627,36.646 26.874,36.646 C28.292,36.646 28.894,36.180 28.894,35.057 C28.894,34.444 28.668,34.010 28.228,33.799 C27.992,33.681 27.626,33.630 27.121,33.630 C26.917,33.630 26.444,33.650 26.165,33.661 C26.165,33.661 26.165,36.614 26.165,36.614 ZM41.494,33.080 C42.417,33.080 42.944,33.174 43.352,33.428 C43.868,33.746 44.168,34.338 44.168,35.026 C44.168,35.915 43.653,36.667 42.836,36.984 C42.396,37.154 41.998,37.206 41.139,37.206 C40.935,37.206 40.795,37.206 40.527,37.196 C40.527,37.196 40.527,39.820 40.527,39.820 C40.527,39.820 39.689,39.820 39.689,39.820 C39.689,39.820 39.689,33.112 39.689,33.112 C40.290,33.101 40.377,33.101 40.720,33.089 C41.085,33.080 41.365,33.080 41.494,33.080 ZM40.527,36.614 C40.827,36.635 40.989,36.646 41.236,36.646 C42.654,36.646 43.256,36.180 43.256,35.057 C43.256,34.444 43.029,34.010 42.589,33.799 C42.353,33.681 41.987,33.630 41.483,33.630 C41.279,33.630 40.806,33.650 40.527,33.661 C40.527,33.661 40.527,36.614 40.527,36.614 ZM46.125,17.129 C46.125,17.129 46.125,20.525 46.125,20.525 C46.125,20.525 47.686,20.525 47.686,20.525 C47.686,20.525 47.686,23.007 47.686,23.007 C47.686,23.007 39.920,23.007 39.920,23.007 C39.920,23.007 39.920,20.525 39.920,20.525 C39.920,20.525 41.575,20.525 41.575,20.525 C41.575,20.525 41.575,17.129 41.575,17.129 C41.575,17.129 41.575,17.115 41.575,17.115 C41.575,17.115 41.575,8.702 41.575,8.702 C41.575,8.702 39.920,8.702 39.920,8.702 C39.920,8.702 39.920,6.415 39.920,6.415 C39.920,6.415 46.125,6.415 46.125,6.415 C46.125,6.415 46.125,10.258 46.125,10.258 C47.134,9.006 48.714,6.122 51.037,6.122 C53.002,6.122 54.073,7.164 54.073,8.789 C54.073,8.789 54.073,15.869 54.073,15.869 C54.073,15.869 49.774,15.869 49.774,15.869 C49.774,15.869 49.774,9.580 49.774,9.580 C49.774,9.048 46.125,13.599 46.125,14.192 C46.125,14.192 46.125,17.115 46.125,17.115 C46.125,17.115 46.125,17.129 46.125,17.129 ZM55.877,33.080 C56.929,33.080 57.402,33.163 57.767,33.407 C58.208,33.692 58.498,34.275 58.498,34.889 C58.498,35.735 58.025,36.338 57.048,36.729 C58.229,38.699 58.885,39.396 59.626,39.471 C59.626,39.471 59.519,39.799 59.519,39.799 C59.497,39.851 59.454,39.873 59.336,39.873 C58.627,39.873 58.251,39.725 57.800,39.259 C57.381,38.826 56.897,38.116 56.188,36.922 C55.877,36.962 55.737,36.973 55.318,36.973 C55.168,36.973 55.081,36.973 54.888,36.962 C54.888,36.962 54.888,39.820 54.888,39.820 C54.888,39.820 54.050,39.820 54.050,39.820 C54.050,39.820 54.050,33.112 54.050,33.112 C54.631,33.101 54.717,33.101 55.050,33.089 C55.512,33.080 55.683,33.080 55.877,33.080 ZM54.888,36.413 C55.200,36.433 55.404,36.444 55.640,36.444 C56.983,36.444 57.585,35.990 57.585,34.984 C57.585,34.392 57.359,33.968 56.940,33.787 C56.693,33.681 56.350,33.630 55.855,33.630 C55.608,33.630 55.135,33.650 54.888,33.661 C54.888,33.661 54.888,36.413 54.888,36.413 ZM66.388,10.258 C67.398,9.006 68.978,6.122 71.301,6.122 C73.266,6.122 74.337,7.164 74.337,8.789 C74.337,8.789 74.337,15.869 74.337,15.869 C74.337,15.869 70.038,15.869 70.038,15.869 C70.038,15.869 70.038,9.580 70.038,9.580 C70.038,9.048 66.388,13.599 66.388,14.192 C66.388,14.192 66.388,17.115 66.388,17.115 C66.388,17.115 66.388,17.129 66.388,17.129 C66.388,17.129 66.388,20.525 66.388,20.525 C66.388,20.525 67.949,20.525 67.949,20.525 C67.949,20.525 67.949,23.007 67.949,23.007 C67.949,23.007 60.183,23.007 60.183,23.007 C60.183,23.007 60.183,20.525 60.183,20.525 C60.183,20.525 61.838,20.525 61.838,20.525 C61.838,20.525 61.838,17.129 61.838,17.129 C61.838,17.129 61.838,17.115 61.838,17.115 C61.838,17.115 61.838,8.702 61.838,8.702 C61.838,8.702 60.183,8.702 60.183,8.702 C60.183,8.702 60.183,6.415 60.183,6.415 C60.183,6.415 66.388,6.415 66.388,6.415 C66.388,6.415 66.388,10.258 66.388,10.258 ZM72.258,32.931 C74.245,32.931 75.706,34.402 75.706,36.381 C75.706,37.672 75.041,38.878 73.988,39.493 C73.451,39.799 72.699,40.000 72.022,40.000 C70.067,40.000 68.487,38.444 68.487,36.518 C68.487,35.322 69.132,34.138 70.110,33.524 C70.765,33.112 71.431,32.931 72.258,32.931 ZM72.204,39.386 C73.644,39.386 74.750,38.158 74.750,36.572 C74.750,35.714 74.406,34.814 73.848,34.233 C73.408,33.778 72.806,33.544 72.065,33.544 C70.539,33.544 69.444,34.708 69.444,36.327 C69.444,38.031 70.668,39.386 72.204,39.386 ZM80.466,17.115 C80.513,15.253 81.546,13.657 84.940,13.642 C84.940,13.642 86.833,13.642 86.833,13.642 C86.833,13.642 89.293,13.640 89.293,13.640 C89.293,13.640 89.293,10.296 89.293,10.296 C89.293,8.552 89.170,8.342 87.393,8.338 C85.240,8.347 85.107,8.612 85.107,10.296 C85.107,10.296 85.107,11.543 85.107,11.543 C85.107,11.543 80.980,11.543 80.980,11.543 C80.980,11.543 80.980,10.088 80.980,10.088 C80.980,6.783 82.667,6.145 87.618,6.124 C92.172,6.139 93.772,6.708 93.772,9.554 C93.772,9.554 93.772,17.115 93.772,17.115 C93.772,17.115 93.772,17.129 93.772,17.129 C93.772,17.129 93.772,18.824 93.772,18.824 C93.772,18.824 93.772,20.534 93.772,20.534 C93.772,20.534 95.458,20.534 95.458,20.534 C95.458,20.534 95.458,23.007 95.458,23.007 C95.458,23.007 84.338,23.008 84.338,23.008 C81.989,23.008 80.465,21.430 80.465,19.473 C80.465,19.473 80.465,17.253 80.465,17.253 C80.465,17.207 80.465,17.163 80.466,17.118 C80.466,17.118 80.466,17.115 80.466,17.115 ZM84.742,17.129 C84.742,17.129 84.742,19.160 84.742,19.160 C84.742,20.014 85.111,20.691 86.130,20.706 C86.130,20.706 87.700,20.706 87.700,20.706 C88.566,20.706 89.269,20.443 89.269,19.160 C89.269,19.160 89.271,17.427 89.271,17.427 C89.271,17.427 89.271,17.129 89.271,17.129 C89.271,17.129 89.271,17.115 89.271,17.115 C89.271,17.115 89.271,15.485 89.271,15.485 C89.271,15.485 87.793,15.485 87.793,15.485 C87.793,15.485 86.130,15.484 86.130,15.484 C85.262,15.484 84.742,16.177 84.742,17.031 C84.742,17.031 84.742,17.115 84.742,17.115 C84.742,17.115 84.742,17.129 84.742,17.129 ZM87.737,38.699 C87.737,38.699 90.143,33.112 90.143,33.112 C90.143,33.112 90.981,33.112 90.981,33.112 C90.981,33.112 87.833,39.820 87.833,39.820 C87.833,39.820 87.339,39.820 87.339,39.820 C87.339,39.820 84.675,33.112 84.675,33.112 C84.675,33.112 85.609,33.112 85.609,33.112 C85.609,33.112 87.737,38.699 87.737,38.699 ZM104.784,33.692 C104.784,33.692 101.228,33.692 101.228,33.692 C101.228,33.692 101.228,35.957 101.228,35.957 C101.228,35.957 104.376,35.957 104.376,35.957 C104.376,35.957 104.376,36.550 104.376,36.550 C104.376,36.550 101.228,36.550 101.228,36.550 C101.228,36.550 101.228,39.207 101.228,39.207 C101.228,39.207 104.805,39.207 104.805,39.207 C104.805,39.207 104.805,39.820 104.805,39.820 C104.805,39.820 100.391,39.820 100.391,39.820 C100.391,39.820 100.391,33.112 100.391,33.112 C100.391,33.112 104.784,33.112 104.784,33.112 C104.784,33.112 104.784,33.692 104.784,33.692 ZM107.737,17.129 C107.737,17.129 107.737,20.525 107.737,20.525 C107.737,20.525 109.298,20.525 109.298,20.525 C109.298,20.525 109.298,23.007 109.298,23.007 C109.298,23.007 101.532,23.007 101.532,23.007 C101.532,23.007 101.532,20.525 101.532,20.525 C101.532,20.525 103.187,20.525 103.187,20.525 C103.187,20.525 103.187,17.129 103.187,17.129 C103.187,17.129 103.187,17.115 103.187,17.115 C103.187,17.115 103.187,8.702 103.187,8.702 C103.187,8.702 101.532,8.702 101.532,8.702 C101.532,8.702 101.532,6.415 101.532,6.415 C101.532,6.415 107.737,6.415 107.737,6.415 C107.737,6.415 107.737,10.258 107.737,10.258 C108.747,9.006 110.326,6.122 112.650,6.122 C114.615,6.122 115.685,7.164 115.685,8.789 C115.685,8.789 115.685,15.869 115.685,15.869 C115.685,15.869 111.386,15.869 111.386,15.869 C111.386,15.869 111.386,9.580 111.386,9.580 C111.386,9.048 107.737,13.599 107.737,14.192 C107.737,14.192 107.737,17.115 107.737,17.115 C107.737,17.115 107.737,17.129 107.737,17.129 Z" id="path-1" class="cls-2" fill-rule="evenodd"/>
</svg>
