<svg xmlns="http://www.w3.org/2000/svg" xmlns:xlink="http://www.w3.org/1999/xlink" preserveAspectRatio="xMidYMid" width="21" height="20" viewBox="0 0 21 20">
  <defs>
    <style>
      .cls-1 {
        fill: #555;
        fill-rule: evenodd;
      }
    </style>
  </defs>
  <path d="M21.006,17.791 L18.682,20.000 L13.894,15.444 C12.387,16.427 10.635,16.924 8.879,16.924 C6.604,16.924 4.327,16.098 2.592,14.444 C-0.882,11.140 -0.882,5.783 2.592,2.478 C4.327,0.826 6.604,0.000 8.879,0.000 C11.156,0.000 13.430,0.826 15.167,2.478 C18.243,5.404 18.582,9.934 16.211,13.229 L21.006,17.791 ZM13.168,4.382 C12.021,3.292 10.499,2.692 8.879,2.692 C7.259,2.692 5.737,3.292 4.591,4.382 C3.448,5.472 2.816,6.920 2.816,8.462 C2.816,10.002 3.448,11.451 4.591,12.541 C5.737,13.631 7.259,14.232 8.879,14.232 C10.499,14.232 12.021,13.631 13.166,12.541 C14.311,11.451 14.943,10.002 14.943,8.462 C14.943,6.920 14.311,5.472 13.168,4.382 Z" class="cls-1"/>
</svg>
