<svg xmlns="http://www.w3.org/2000/svg" xmlns:xlink="http://www.w3.org/1999/xlink" preserveAspectRatio="xMidYMid" width="121.031" height="102" viewBox="0 0 121.031 102">
  <defs>
    <style>
      .cls-1 {
        fill: #555;
        fill-rule: evenodd;
      }
    </style>
  </defs>
  <path d="M119.510,38.220 L112.589,41.186 C111.757,41.542 110.658,42.949 110.484,43.365 C110.309,43.781 110.449,44.808 110.793,45.647 L113.634,52.571 C113.979,53.411 113.738,54.623 113.099,55.266 L109.542,58.841 C108.903,59.484 107.694,59.733 106.855,59.395 L99.930,56.606 C99.091,56.268 97.306,56.487 96.875,56.653 C96.443,56.819 95.807,57.641 95.459,58.480 L92.605,65.376 C92.257,66.215 91.234,66.901 90.330,66.901 L85.299,66.901 C84.395,66.901 83.365,66.217 83.010,65.382 L80.094,58.524 C79.739,57.689 78.263,56.567 77.825,56.380 C77.387,56.194 76.344,56.325 75.509,56.671 L68.726,59.479 C67.890,59.824 66.684,59.582 66.045,58.939 L62.488,55.364 C61.849,54.722 61.601,53.506 61.938,52.663 L64.670,45.817 C65.006,44.973 64.752,43.098 64.579,42.638 C64.407,42.177 63.584,41.515 62.750,41.165 L55.995,38.336 C55.161,37.987 54.479,36.958 54.479,36.050 L54.479,30.992 C54.479,30.083 55.158,29.048 55.989,28.691 L62.747,25.786 C63.578,25.429 64.719,23.918 64.913,23.469 C65.108,23.020 64.985,21.966 64.642,21.126 L61.862,14.333 C61.518,13.493 61.760,12.280 62.399,11.638 L65.956,8.062 C66.595,7.420 67.804,7.171 68.642,7.510 L75.479,10.271 C76.317,10.610 78.157,10.375 78.603,10.208 C79.050,10.042 79.700,9.221 80.049,8.382 L82.893,1.535 C83.242,0.697 84.266,0.011 85.170,0.011 L90.201,0.011 C91.105,0.011 92.135,0.694 92.489,1.530 L95.415,8.421 C95.769,9.256 97.199,10.378 97.619,10.565 C98.039,10.751 99.066,10.620 99.901,10.274 L106.765,7.433 C107.601,7.087 108.808,7.330 109.446,7.972 L113.005,11.548 C113.644,12.190 113.892,13.405 113.555,14.248 L110.766,21.227 C110.430,22.070 110.639,23.851 110.795,24.275 C110.952,24.699 111.762,25.332 112.596,25.682 L119.505,28.575 C120.339,28.925 121.021,29.954 121.021,30.862 L121.021,35.920 C121.021,36.828 120.341,37.863 119.510,38.220 ZM87.685,20.914 C80.798,20.914 75.209,26.533 75.209,33.456 C75.209,40.379 80.798,45.998 87.685,45.998 C94.573,45.998 100.162,40.379 100.162,33.456 C100.162,26.533 94.573,20.914 87.685,20.914 ZM58.512,46.645 C59.151,47.287 59.398,48.502 59.061,49.345 L56.273,56.324 C55.936,57.167 56.146,58.948 56.302,59.372 C56.458,59.796 57.268,60.429 58.102,60.779 L65.011,63.672 C65.845,64.021 66.527,65.050 66.527,65.959 L66.527,71.017 C66.527,71.925 65.847,72.960 65.016,73.316 L58.095,76.283 C57.264,76.639 56.164,78.046 55.990,78.462 C55.815,78.878 55.955,79.905 56.299,80.744 L59.140,87.668 C59.485,88.508 59.244,89.720 58.605,90.363 L55.048,93.938 C54.409,94.581 53.200,94.830 52.361,94.492 L45.436,91.703 C44.598,91.365 42.812,91.584 42.381,91.750 C41.949,91.916 41.313,92.738 40.965,93.577 L38.111,100.473 C37.763,101.312 36.740,101.998 35.836,101.998 L30.805,101.998 C29.901,101.998 28.871,101.314 28.516,100.479 L25.600,93.621 C25.245,92.786 23.769,91.663 23.331,91.477 C22.893,91.291 21.851,91.422 21.015,91.768 L14.232,94.575 C13.397,94.921 12.190,94.679 11.551,94.036 L7.994,90.461 C7.355,89.818 7.108,88.603 7.444,87.760 L10.176,80.913 C10.512,80.070 10.258,78.195 10.086,77.734 C9.913,77.274 9.090,76.612 8.256,76.262 L1.501,73.433 C0.667,73.084 -0.015,72.055 -0.015,71.147 L-0.015,66.088 C-0.015,65.180 0.664,64.145 1.495,63.788 L8.254,60.883 C9.085,60.526 10.225,59.015 10.419,58.566 C10.614,58.117 10.492,57.063 10.148,56.222 L7.368,49.430 C7.024,48.590 7.266,47.377 7.905,46.735 L11.462,43.159 C12.101,42.517 13.310,42.268 14.148,42.607 L20.985,45.368 C21.823,45.706 23.663,45.471 24.110,45.305 C24.556,45.139 25.206,44.317 25.555,43.479 L28.400,36.632 C28.748,35.793 29.772,35.108 30.676,35.108 L35.707,35.108 C36.611,35.108 37.641,35.791 37.995,36.627 L40.921,43.518 C41.275,44.353 42.705,45.475 43.125,45.662 C43.545,45.848 44.572,45.717 45.408,45.371 L52.271,42.530 C53.107,42.184 54.314,42.427 54.953,43.069 L58.512,46.645 ZM33.192,56.011 C26.304,56.011 20.715,61.630 20.715,68.553 C20.715,75.476 26.304,81.095 33.192,81.095 C40.079,81.095 45.668,75.476 45.668,68.553 C45.668,61.630 40.079,56.011 33.192,56.011 Z" class="cls-1"/>
</svg>
