<svg xmlns="http://www.w3.org/2000/svg" xmlns:xlink="http://www.w3.org/1999/xlink" preserveAspectRatio="xMidYMid" width="13.22" height="19.156" viewBox="0 0 13.22 19.156">
  <defs>
    <style>
      .cls-1 {
        fill: #fff;
        fill-rule: evenodd;
      }
    </style>
  </defs>
  <path d="M10.306,6.671 C9.650,6.671 9.075,6.914 8.588,7.262 L5.282,4.279 C5.598,3.838 5.826,3.335 5.826,2.762 C5.826,1.239 4.524,0.004 2.917,0.004 C1.310,0.004 0.007,1.239 0.007,2.762 C0.007,4.284 1.310,5.519 2.917,5.519 C3.573,5.519 4.148,5.275 4.634,4.928 L7.941,7.912 C7.624,8.353 7.396,8.856 7.396,9.429 C7.396,10.016 7.634,10.531 7.964,10.979 L4.665,14.262 C4.174,13.902 3.586,13.652 2.917,13.652 C1.310,13.652 0.007,14.887 0.007,16.409 C0.007,17.932 1.310,19.167 2.917,19.167 C4.524,19.167 5.826,17.932 5.826,16.409 C5.826,15.849 5.607,15.358 5.304,14.923 L8.624,11.618 C9.104,11.950 9.665,12.186 10.306,12.186 C11.913,12.186 13.216,10.951 13.216,9.429 C13.216,7.906 11.913,6.671 10.306,6.671 Z" class="cls-1"/>
</svg>
