<svg xmlns="http://www.w3.org/2000/svg" xmlns:xlink="http://www.w3.org/1999/xlink" preserveAspectRatio="xMidYMid" width="10.5" height="20.75" viewBox="0 0 10.5 20.75">
  <defs>
    <style>
      .cls-1 {
        fill: gray;
        fill-rule: evenodd;
      }
    </style>
  </defs>
  <path d="M2.668,20.758 L2.668,11.014 L-0.011,11.014 L-0.011,7.505 L2.668,7.505 C2.668,7.505 2.668,6.068 2.668,4.509 C2.668,2.154 4.251,-0.008 7.898,-0.008 C9.374,-0.008 10.466,0.128 10.466,0.128 L10.380,3.404 C10.380,3.404 9.267,3.393 8.052,3.393 C6.737,3.393 6.526,3.977 6.526,4.944 C6.526,5.708 6.526,3.314 6.526,7.505 L10.485,7.505 L10.312,11.014 L6.526,11.014 L6.526,20.758 L2.668,20.758 Z" class="cls-1"/>
</svg>
