<svg xmlns="http://www.w3.org/2000/svg" xmlns:xlink="http://www.w3.org/1999/xlink" preserveAspectRatio="xMidYMid" width="26.219" height="20.12" viewBox="0 0 26.219 20.12">
  <defs>
    <style>
      .cls-1 {
        fill: gray;
        fill-rule: evenodd;
      }
    </style>
  </defs>
  <path d="M26.211,2.379 C25.247,2.784 24.211,3.057 23.124,3.180 C24.233,2.551 25.086,1.555 25.487,0.368 C24.448,0.950 23.298,1.374 22.073,1.601 C21.093,0.613 19.695,-0.004 18.149,-0.004 C15.180,-0.004 12.773,2.272 12.773,5.079 C12.773,5.477 12.820,5.865 12.912,6.237 C8.444,6.026 4.482,4.002 1.830,0.926 C1.367,1.677 1.102,2.550 1.102,3.482 C1.102,5.246 2.051,6.801 3.494,7.713 C2.613,7.686 1.784,7.458 1.059,7.077 C1.058,7.098 1.058,7.119 1.058,7.140 C1.058,9.604 2.912,11.658 5.371,12.125 C4.920,12.241 4.445,12.304 3.955,12.304 C3.608,12.304 3.272,12.272 2.943,12.212 C3.627,14.232 5.613,15.701 7.965,15.742 C6.125,17.106 3.807,17.918 1.288,17.918 C0.854,17.918 0.427,17.894 0.006,17.847 C2.385,19.289 5.211,20.131 8.247,20.131 C18.136,20.131 23.544,12.386 23.544,5.668 C23.544,5.448 23.539,5.229 23.529,5.010 C24.579,4.294 25.491,3.399 26.211,2.379 Z" class="cls-1"/>
</svg>
