<svg xmlns="http://www.w3.org/2000/svg" xmlns:xlink="http://www.w3.org/1999/xlink" preserveAspectRatio="xMidYMid" width="23" height="24" viewBox="0 0 23 24">
  <defs>
    <style>
      .cls-1 {
        fill: gray;
        fill-rule: evenodd;
      }
    </style>
  </defs>
  <path d="M20.006,23.994 L2.991,23.994 C0.984,23.994 -0.000,21.112 -0.000,17.556 C-0.000,15.737 0.259,14.097 0.779,12.926 C1.276,11.807 2.011,11.116 2.991,11.116 L20.006,11.116 C20.986,11.116 21.721,11.808 22.218,12.926 C22.738,14.098 22.998,15.737 22.998,17.556 C22.998,21.111 22.013,23.994 20.006,23.994 ZM7.606,13.003 L2.520,13.003 L2.520,14.137 L4.475,14.137 L4.475,22.126 L5.702,22.126 L5.702,14.137 L7.606,14.137 L7.606,13.003 ZM11.447,14.849 L10.226,14.849 L10.226,20.785 C9.957,20.924 9.666,20.979 9.439,20.979 C8.964,20.979 8.879,20.353 8.879,20.353 L8.879,14.797 L7.645,14.797 L7.645,21.251 C7.645,21.251 7.586,22.147 8.932,22.147 C9.414,22.147 9.879,21.817 10.226,21.429 L10.226,22.147 L11.447,22.147 L11.447,14.849 ZM15.909,16.366 C15.909,14.898 14.479,14.598 13.379,14.976 L13.379,12.964 L12.119,12.964 L12.119,22.116 L13.379,22.116 L13.379,21.910 C14.480,22.364 15.909,22.214 15.909,20.555 L15.909,16.366 ZM20.438,20.363 L19.146,20.363 C19.042,20.615 18.813,20.792 18.545,20.792 C18.179,20.792 17.838,20.668 17.838,20.266 L17.838,18.475 L20.438,18.475 L20.438,18.436 L20.438,16.363 C20.438,15.503 19.587,14.807 18.537,14.807 C17.486,14.807 16.635,15.503 16.635,16.362 L16.635,20.533 C16.635,21.391 17.486,22.087 18.537,22.087 C19.587,22.087 20.438,21.391 20.438,20.533 L20.438,20.363 ZM18.545,15.932 C18.923,15.932 19.228,15.956 19.228,16.413 L19.228,17.280 L17.863,17.280 L17.863,16.413 C17.863,15.956 18.169,15.932 18.545,15.932 ZM14.038,21.005 C13.624,21.005 13.445,20.833 13.379,20.568 L13.379,16.416 C13.445,16.147 13.625,15.970 14.038,15.970 C14.602,15.970 14.745,16.298 14.745,16.741 L14.745,20.247 C14.745,20.688 14.601,21.005 14.038,21.005 ZM16.625,9.099 C16.278,9.487 15.814,9.817 15.332,9.817 C13.985,9.817 14.044,8.921 14.044,8.921 L14.044,2.467 L15.279,2.467 L15.279,8.023 C15.279,8.023 15.364,8.649 15.839,8.649 C16.065,8.649 16.356,8.594 16.625,8.455 L16.625,2.519 L17.846,2.519 L17.846,9.817 L16.625,9.817 L16.625,9.099 ZM11.458,9.805 C10.414,9.805 9.567,9.103 9.567,8.237 L9.567,4.036 C9.567,3.170 10.414,2.467 11.458,2.467 C12.503,2.467 13.349,3.170 13.349,4.036 L13.349,8.237 C13.349,9.103 12.503,9.805 11.458,9.805 ZM12.140,4.468 C12.140,4.033 11.845,3.679 11.481,3.679 C11.117,3.679 10.822,4.033 10.822,4.468 L10.822,7.925 C10.822,8.359 11.117,8.714 11.481,8.714 C11.845,8.714 12.140,8.359 12.140,7.925 L12.140,4.468 ZM7.733,5.552 L7.699,5.552 L7.600,5.552 L7.600,9.831 L6.360,9.831 L6.360,5.552 L6.329,5.552 L6.306,5.552 L6.318,5.517 L4.457,-0.004 L5.861,-0.004 L7.017,3.426 L8.164,-0.004 L9.557,-0.004 L7.716,5.501 L7.733,5.552 Z" class="cls-1"/>
</svg>
